<?xml version="1.0" encoding="UTF-8" standalone="no"?>
<!-- Created with Inkscape (http://www.inkscape.org/) -->

<svg
   width="110.86615mm"
   height="54.515137mm"
   viewBox="0 0 110.86615 54.515136"
   version="1.1"
   id="svg1"
   xmlns="http://www.w3.org/2000/svg"
   xmlns:svg="http://www.w3.org/2000/svg">
  <defs
     id="defs1" />
  <g
     id="layer1"
     transform="translate(-49.566932,-121.24244)">
    <rect
       style="display:none;fill:#111111;fill-opacity:1;stroke:none;stroke-width:1.005;stroke-linejoin:round"
       id="rect1"
       width="165.90846"
       height="165.90846"
       x="22.045769"
       y="65.545769" />
    <path
       style="font-weight:100;font-size:141.111px;line-height:0.9;font-family:'Work Sans';-inkscape-font-specification:'Work Sans Thin';fill:none;fill-opacity:1;stroke:#33ff33;stroke-width:0.363;stroke-linejoin:round;stroke-dasharray:none"
       d="m 57.738029,128.77828 c 23.332793,5.71527 -15.090449,30.33892 -6.79336,4.0768 1.238147,-2.47169 3.91435,-4.41624 6.79336,-4.0768 z m 0,0.46802 c -21.530574,5.44447 13.942724,28.57909 6.326348,3.89967 -1.138158,-2.32767 -3.620863,-4.18747 -6.326348,-3.89967 z m 12.736503,-7.8224 c -0.03466,11.83901 1.193196,35.02049 -0.594705,10.89423 1.289441,-3.20094 -1.137973,-8.50999 0.594705,-10.89423 z m 7.788961,4.41262 c -3.128135,-1.50045 2.939588,-1.60333 0,0 z m 0.267438,3.27605 c 0.785107,15.54953 -1.676398,20.38667 0,0 z m 19.255156,-3.07547 c -3.701992,5.79716 -4.431717,0.77016 0,0 z m -5.515793,18.55315 c 15.405506,7.61329 -19.231801,11.73261 -7.411933,-1.76059 4.072205,-8.76364 9.856544,1.01997 3.446884,1.79939 z m -2.005755,7.95611 c 18.612241,-5.96041 -19.325512,-9.86252 -1.770932,-0.14888 l 1.223561,0.10287 z m -0.267404,-23.76808 c 18.805265,6.033 -17.637952,15.67954 -2.924615,0.40984 0.974863,-0.13662 1.949752,-0.27322 2.924615,-0.40984 z m 0,0.46802 c -19.490686,8.39382 21.441775,12.8068 0,0 z m 21.561755,5.34864 c -0.1689,-9.45034 -20.056692,-0.80252 -3.77827,-5.61848 15.14258,10.78528 -3.63273,25.88014 -7.0491,10.65955 20.59779,-9.62082 -12.674972,5.98463 6.4684,5.98472 4.75357,-1.08912 4.67752,-7.28342 4.35897,-11.02579 z m 6.51865,11.23217 c -4.20044,-13.60658 9.6824,-23.72217 -0.44186,-6.76288 1.11452,2.00759 1.54045,4.67102 0.44186,6.76288 z m 16.94852,-17.04883 c 17.01334,6.20774 -16.33739,-4.59932 -5.14069,11.68681 5.39396,8.72429 16.18327,2.65022 2.34213,5.6621 -7.63045,-3.29184 -6.16528,-17.32609 2.79856,-17.34891 z m 10.96474,17.04883 V 121.4239 c -5.07921,17.92329 16.59542,-0.72757 14.0521,17.6383 0.32929,13.03324 -2.93412,-23.77257 -12.26354,-5.36916 -1.90867,3.67192 -2.9329,8.0466 -1.78856,12.13407 z m -68.743932,18.18251 c -0.168866,-9.45033 -20.056663,-0.80252 -3.778256,-5.61849 15.142592,10.78529 -3.632737,25.88014 -7.049081,10.65956 20.597791,-9.62083 -12.674977,5.98459 6.468366,5.98471 4.753598,-1.08912 4.677503,-7.28341 4.358971,-11.02578 z m 7.588396,-9.99529 c -1.802135,9.0734 5.221022,32.85236 -0.897803,12.05918 0.0726,-4.037 1.074693,-8.01335 0.897803,-12.05918 z m 6.451833,4.51292 c -11.778743,0.95638 -12.89435,-0.3643 0,0 z m 9.761303,17.04882 c -19.9098,-0.80142 5.97477,-30.44482 6.12292,-9.02054 -14.689634,-0.76078 -9.61879,2.10712 -0.0556,-2.87363 -14.753216,-17.80477 -18.175057,20.32734 -0.18257,9.28807 l -2.65959,1.94383 z m 11.63331,-24.7375 c -0.0347,11.83901 1.1932,35.02049 -0.59471,10.89424 1.28945,-3.20093 -1.13797,-8.50999 0.59471,-10.89424 z m 7.78896,4.41263 c -3.12813,-1.50042 2.93959,-1.60336 0,0 z m 0.26744,3.27605 c 0.78511,15.54952 -1.67639,20.38666 0,0 z m 12.30193,17.04882 c -19.90978,-0.80145 5.97476,-30.4448 6.12292,-9.02054 -14.68964,-0.76078 -9.61879,2.10712 -0.0555,-2.87363 -14.75328,-17.8048 -18.17509,20.32735 -0.18258,9.28807 l -2.6596,1.9438 z m 11.23217,-0.33428 c -4.20043,-13.60656 9.68235,-23.72218 -0.44186,-6.76288 1.11451,2.00758 1.54046,4.67101 0.44186,6.76288 z"
       id="text15-6-3-2-1-0-7"
       aria-label="atelier oligarch atelier" />
    <ellipse
       style="display:none;fill:none;fill-opacity:1;stroke:#33ff33;stroke-width:1.346;stroke-linejoin:round;stroke-dasharray:none;stroke-opacity:1"
       id="path24"
       cx="96.254913"
       cy="107.45548"
       rx="80.285919"
       ry="74.291443" />
  </g>
</svg>
